<svg xmlns="http://www.w3.org/2000/svg" xmlns:xlink="http://www.w3.org/1999/xlink" width="600" zoomAndPan="magnify" viewBox="0 0 450 149.999998" height="200" preserveAspectRatio="xMidYMid meet" version="1.0"><defs><g/><clipPath id="0022314b15"><path d="M 61.660156 36.691406 L 116.410156 36.691406 L 116.410156 96.691406 L 61.660156 96.691406 Z M 61.660156 36.691406 " clip-rule="nonzero"/></clipPath></defs><g clip-path="url(#0022314b15)"><path fill="#2e7ef6" d="M 88.847656 96.695312 C 73.839844 96.695312 61.660156 84.515625 61.660156 69.507812 C 61.660156 62.035156 64.695312 55.277344 69.582031 50.363281 L 69.605469 50.386719 C 70.59375 49.023438 72.191406 48.125 74.003906 48.125 C 77.003906 48.125 79.441406 50.5625 79.441406 53.5625 C 79.441406 55.402344 78.519531 57.023438 77.121094 58.007812 L 77.140625 58.027344 C 74.203125 60.984375 72.363281 65.023438 72.363281 69.507812 C 72.363281 78.554688 79.742188 85.898438 88.832031 85.898438 C 97.921875 85.898438 105.296875 78.554688 105.296875 69.507812 C 105.296875 65.414062 103.757812 61.703125 101.257812 58.835938 C 99.769531 57.867188 98.777344 56.195312 98.777344 54.285156 C 98.777344 51.285156 101.214844 48.847656 104.21875 48.847656 C 105.683594 48.847656 107.007812 49.441406 107.988281 50.386719 L 108.066406 50.308594 C 112.980469 55.226562 116.027344 62.007812 116.027344 69.507812 C 116.027344 84.511719 103.851562 96.695312 88.847656 96.695312 Z M 88.84375 69.695312 C 85.832031 69.695312 83.40625 67.226562 83.40625 64.160156 L 83.40625 42.230469 C 83.40625 39.164062 85.832031 36.695312 88.84375 36.695312 C 91.855469 36.695312 94.28125 39.164062 94.28125 42.230469 L 94.28125 64.160156 C 94.28125 67.226562 91.855469 69.695312 88.84375 69.695312 Z M 88.84375 69.695312 " fill-opacity="1" fill-rule="evenodd"/></g><g fill="#2e7ef6" fill-opacity="1"><g transform="translate(116.033654, 96.057689)"><g><path d="M 20.046875 -26.15625 C 16.523438 -26.15625 13.242188 -24.238281 10.203125 -20.40625 L 10.203125 -2.40625 C 10.203125 -1.644531 9.929688 -1.003906 9.390625 -0.484375 C 8.847656 0.0351562 8.195312 0.296875 7.4375 0.296875 C 6.675781 0.296875 6.035156 0.0351562 5.515625 -0.484375 C 4.992188 -1.003906 4.734375 -1.644531 4.734375 -2.40625 L 4.734375 -28.140625 C 4.734375 -28.941406 4.992188 -29.601562 5.515625 -30.125 C 6.035156 -30.644531 6.675781 -30.90625 7.4375 -30.90625 C 8.195312 -30.90625 8.847656 -30.644531 9.390625 -30.125 C 9.929688 -29.601562 10.203125 -28.941406 10.203125 -28.140625 L 10.203125 -25.6875 C 11.796875 -27.363281 13.175781 -28.539062 14.34375 -29.21875 C 16.625 -30.539062 18.789062 -31.203125 20.84375 -31.203125 C 22.90625 -31.203125 24.597656 -30.890625 25.921875 -30.265625 C 27.242188 -29.648438 28.363281 -28.800781 29.28125 -27.71875 C 31.15625 -25.519531 32.09375 -22.757812 32.09375 -19.4375 L 32.09375 -2.40625 C 32.09375 -1.644531 31.820312 -1.003906 31.28125 -0.484375 C 30.75 0.0351562 30.101562 0.296875 29.34375 0.296875 C 28.582031 0.296875 27.941406 0.0351562 27.421875 -0.484375 C 26.898438 -1.003906 26.640625 -1.644531 26.640625 -2.40625 L 26.640625 -18.84375 C 26.640625 -21.125 26.128906 -22.910156 25.109375 -24.203125 C 24.085938 -25.503906 22.398438 -26.15625 20.046875 -26.15625 Z M 20.046875 -26.15625 "/></g></g></g><g fill="#b8b8b8" fill-opacity="1"><g transform="translate(152.584433, 96.057689)"><g><path d="M 18.484375 -4.5625 C 25.484375 -4.5625 28.984375 -6.859375 28.984375 -11.453125 C 28.984375 -13.378906 27.640625 -14.921875 24.953125 -16.078125 C 23.796875 -16.554688 22.445312 -16.984375 20.90625 -17.359375 C 19.363281 -17.742188 17.800781 -18.15625 16.21875 -18.59375 C 14.644531 -19.039062 13.085938 -19.539062 11.546875 -20.09375 C 10.003906 -20.65625 8.632812 -21.378906 7.4375 -22.265625 C 4.800781 -24.265625 3.484375 -26.90625 3.484375 -30.1875 C 3.484375 -33.695312 4.800781 -36.570312 7.4375 -38.8125 C 10.320312 -41.257812 14.179688 -42.484375 19.015625 -42.484375 C 23.378906 -42.484375 27.359375 -41.820312 30.953125 -40.5 C 32.078125 -40.101562 32.640625 -39.300781 32.640625 -38.09375 C 32.640625 -37.5 32.425781 -36.929688 32 -36.390625 C 31.582031 -35.847656 31.125 -35.578125 30.625 -35.578125 C 30.125 -35.578125 29.4375 -35.738281 28.5625 -36.0625 C 25.957031 -36.976562 22.976562 -37.4375 19.625 -37.4375 C 16.539062 -37.4375 14 -36.859375 12 -35.703125 C 9.957031 -34.503906 8.9375 -32.800781 8.9375 -30.59375 C 8.9375 -28.320312 10.257812 -26.601562 12.90625 -25.4375 C 14.101562 -24.875 15.460938 -24.410156 16.984375 -24.046875 C 18.503906 -23.691406 20.0625 -23.3125 21.65625 -22.90625 C 23.257812 -22.507812 24.820312 -22.039062 26.34375 -21.5 C 27.863281 -20.96875 29.222656 -20.257812 30.421875 -19.375 C 33.054688 -17.457031 34.375 -14.695312 34.375 -11.09375 C 34.375 -7.65625 32.992188 -4.859375 30.234375 -2.703125 C 27.398438 -0.503906 23.660156 0.59375 19.015625 0.59375 C 13.941406 0.59375 9.179688 -0.363281 4.734375 -2.28125 C 4.296875 -2.476562 3.90625 -2.796875 3.5625 -3.234375 C 3.226562 -3.679688 3.0625 -4.210938 3.0625 -4.828125 C 3.0625 -5.453125 3.28125 -6.015625 3.71875 -6.515625 C 4.15625 -7.015625 4.664062 -7.265625 5.25 -7.265625 C 5.832031 -7.265625 6.550781 -7.070312 7.40625 -6.6875 C 8.269531 -6.3125 9.679688 -5.863281 11.640625 -5.34375 C 13.597656 -4.820312 15.878906 -4.5625 18.484375 -4.5625 Z M 18.484375 -4.5625 "/></g></g></g><g fill="#b8b8b8" fill-opacity="1"><g transform="translate(189.544395, 96.057689)"><g><path d="M 8.453125 -13.375 C 8.773438 -10.65625 9.796875 -8.492188 11.515625 -6.890625 C 13.234375 -5.296875 15.632812 -4.5 18.71875 -4.5 C 21.800781 -4.5 24.378906 -5.019531 26.453125 -6.0625 C 27.179688 -6.414062 27.800781 -6.59375 28.3125 -6.59375 C 28.832031 -6.59375 29.332031 -6.375 29.8125 -5.9375 C 30.300781 -5.5 30.546875 -5 30.546875 -4.4375 C 30.546875 -3.394531 30.113281 -2.644531 29.25 -2.1875 C 28.382812 -1.726562 27.613281 -1.335938 26.9375 -1.015625 C 26.257812 -0.703125 25.519531 -0.425781 24.71875 -0.1875 C 22.914062 0.332031 20.835938 0.59375 18.484375 0.59375 C 13.554688 0.59375 9.734375 -0.785156 7.015625 -3.546875 C 4.296875 -6.304688 2.9375 -10.222656 2.9375 -15.296875 C 2.9375 -19.703125 4.078125 -23.363281 6.359375 -26.28125 C 8.921875 -29.5625 12.5625 -31.203125 17.28125 -31.203125 C 21.757812 -31.203125 25.300781 -29.679688 27.90625 -26.640625 C 30.34375 -23.796875 31.5625 -20.273438 31.5625 -16.078125 C 31.5625 -15.316406 31.3125 -14.675781 30.8125 -14.15625 C 30.3125 -13.632812 29.640625 -13.375 28.796875 -13.375 Z M 17.28125 -26.578125 C 13.71875 -26.578125 11.117188 -25 9.484375 -21.84375 C 8.878906 -20.71875 8.535156 -19.375 8.453125 -17.8125 L 26.15625 -17.8125 C 26 -20.65625 24.960938 -22.898438 23.046875 -24.546875 C 21.441406 -25.898438 19.519531 -26.578125 17.28125 -26.578125 Z M 17.28125 -26.578125 "/></g></g></g><g fill="#b8b8b8" fill-opacity="1"><g transform="translate(223.744363, 96.057689)"><g><path d="M 27.65625 -26.640625 L 27.65625 -28.140625 C 27.65625 -28.898438 27.914062 -29.550781 28.4375 -30.09375 C 28.957031 -30.632812 29.597656 -30.90625 30.359375 -30.90625 C 31.117188 -30.90625 31.769531 -30.632812 32.3125 -30.09375 C 32.851562 -29.550781 33.125 -28.898438 33.125 -28.140625 L 33.125 -1.3125 C 33.125 3.757812 31.898438 7.644531 29.453125 10.34375 C 27.015625 13.050781 23.535156 14.40625 19.015625 14.40625 C 14.210938 14.40625 9.9375 13.363281 6.1875 11.28125 C 5.457031 10.84375 5.09375 10.234375 5.09375 9.453125 C 5.09375 8.671875 5.320312 8.019531 5.78125 7.5 C 6.25 6.976562 6.734375 6.71875 7.234375 6.71875 C 7.734375 6.71875 8.179688 6.796875 8.578125 6.953125 C 11.617188 8.472656 14.921875 9.234375 18.484375 9.234375 C 24.597656 9.234375 27.65625 5.972656 27.65625 -0.546875 L 27.65625 -4.5625 C 24.820312 -1.519531 21.40625 0 17.40625 0 C 13.601562 0 10.34375 -1.28125 7.625 -3.84375 C 4.457031 -6.757812 2.875 -10.675781 2.875 -15.59375 C 2.875 -20.519531 4.457031 -24.441406 7.625 -27.359375 C 10.34375 -29.921875 13.648438 -31.203125 17.546875 -31.203125 C 21.453125 -31.203125 24.820312 -29.679688 27.65625 -26.640625 Z M 27.65625 -21.78125 C 26.539062 -22.9375 25.257812 -23.960938 23.8125 -24.859375 C 22.375 -25.765625 20.773438 -26.21875 19.015625 -26.21875 C 17.253906 -26.21875 15.753906 -26 14.515625 -25.5625 C 13.273438 -25.125 12.195312 -24.484375 11.28125 -23.640625 C 9.320312 -21.796875 8.34375 -19.113281 8.34375 -15.59375 C 8.34375 -10.4375 10.398438 -7.117188 14.515625 -5.640625 C 15.753906 -5.203125 17.253906 -4.984375 19.015625 -4.984375 C 21.941406 -4.984375 24.820312 -6.460938 27.65625 -9.421875 Z M 27.65625 -21.78125 "/></g></g></g><g fill="#b8b8b8" fill-opacity="1"><g transform="translate(261.604324, 96.057689)"><g><path d="M 16.5625 -4.4375 C 20.082031 -4.4375 23.363281 -6.359375 26.40625 -10.203125 L 26.40625 -28.203125 C 26.40625 -28.960938 26.671875 -29.601562 27.203125 -30.125 C 27.742188 -30.644531 28.394531 -30.90625 29.15625 -30.90625 C 29.914062 -30.90625 30.554688 -30.644531 31.078125 -30.125 C 31.597656 -29.601562 31.859375 -28.960938 31.859375 -28.203125 L 31.859375 -2.453125 C 31.859375 -1.660156 31.597656 -1.003906 31.078125 -0.484375 C 30.554688 0.0351562 29.914062 0.296875 29.15625 0.296875 C 28.394531 0.296875 27.742188 0.0351562 27.203125 -0.484375 C 26.671875 -1.003906 26.40625 -1.660156 26.40625 -2.453125 L 26.40625 -4.921875 C 24.800781 -3.242188 23.421875 -2.0625 22.265625 -1.375 C 19.984375 -0.0625 17.8125 0.59375 15.75 0.59375 C 13.6875 0.59375 11.992188 0.285156 10.671875 -0.328125 C 9.359375 -0.953125 8.238281 -1.800781 7.3125 -2.875 C 5.4375 -5.082031 4.5 -7.84375 4.5 -11.15625 L 4.5 -28.203125 C 4.5 -28.960938 4.769531 -29.601562 5.3125 -30.125 C 5.851562 -30.644531 6.503906 -30.90625 7.265625 -30.90625 C 8.023438 -30.90625 8.660156 -30.644531 9.171875 -30.125 C 9.691406 -29.601562 9.953125 -28.960938 9.953125 -28.203125 L 9.953125 -11.765625 C 9.953125 -9.484375 10.460938 -7.691406 11.484375 -6.390625 C 12.503906 -5.085938 14.195312 -4.4375 16.5625 -4.4375 Z M 16.5625 -4.4375 "/></g></g></g><g fill="#b8b8b8" fill-opacity="1"><g transform="translate(298.204289, 96.057689)"><g><path d="M 10.203125 -25.5625 C 13.003906 -29.320312 16.144531 -31.203125 19.625 -31.203125 L 19.921875 -31.203125 C 20.679688 -31.203125 21.3125 -30.941406 21.8125 -30.421875 C 22.3125 -29.898438 22.5625 -29.25 22.5625 -28.46875 C 22.5625 -27.6875 22.300781 -27.066406 21.78125 -26.609375 C 21.257812 -26.148438 20.597656 -25.921875 19.796875 -25.921875 L 19.5 -25.921875 C 17.5 -25.921875 15.707031 -25.429688 14.125 -24.453125 C 12.550781 -23.472656 11.242188 -22.203125 10.203125 -20.640625 L 10.203125 -2.40625 C 10.203125 -1.644531 9.929688 -1.003906 9.390625 -0.484375 C 8.847656 0.0351562 8.195312 0.296875 7.4375 0.296875 C 6.675781 0.296875 6.035156 0.0351562 5.515625 -0.484375 C 4.992188 -1.003906 4.734375 -1.644531 4.734375 -2.40625 L 4.734375 -28.140625 C 4.734375 -28.898438 4.992188 -29.550781 5.515625 -30.09375 C 6.035156 -30.632812 6.675781 -30.90625 7.4375 -30.90625 C 8.195312 -30.90625 8.847656 -30.632812 9.390625 -30.09375 C 9.929688 -29.550781 10.203125 -28.898438 10.203125 -28.140625 Z M 10.203125 -25.5625 "/></g></g></g><g fill="#b8b8b8" fill-opacity="1"><g transform="translate(321.42427, 96.057689)"><g><path d="M 18.234375 -31.203125 C 22.878906 -31.203125 26.601562 -29.738281 29.40625 -26.8125 C 32.195312 -23.851562 33.59375 -20.015625 33.59375 -15.296875 C 33.59375 -10.578125 32.195312 -6.738281 29.40625 -3.78125 C 26.601562 -0.863281 22.878906 0.59375 18.234375 0.59375 C 13.554688 0.59375 9.835938 -0.863281 7.078125 -3.78125 C 4.273438 -6.695312 2.875 -10.535156 2.875 -15.296875 C 2.875 -20.054688 4.273438 -23.894531 7.078125 -26.8125 C 9.835938 -29.738281 13.554688 -31.203125 18.234375 -31.203125 Z M 11.546875 -6.859375 C 12.484375 -6.003906 13.539062 -5.375 14.71875 -4.96875 C 15.90625 -4.570312 17.066406 -4.375 18.203125 -4.375 C 19.347656 -4.375 20.507812 -4.570312 21.6875 -4.96875 C 22.863281 -5.375 23.9375 -6 24.90625 -6.84375 C 27.0625 -8.800781 28.140625 -11.640625 28.140625 -15.359375 C 28.140625 -18.960938 27.0625 -21.765625 24.90625 -23.765625 C 23.101562 -25.398438 20.878906 -26.21875 18.234375 -26.21875 C 13.921875 -26.21875 10.921875 -24.28125 9.234375 -20.40625 C 8.640625 -19 8.34375 -17.304688 8.34375 -15.328125 C 8.34375 -13.347656 8.640625 -11.65625 9.234375 -10.25 C 9.835938 -8.851562 10.609375 -7.722656 11.546875 -6.859375 Z M 11.546875 -6.859375 "/></g></g></g><g fill="#b8b8b8" fill-opacity="1"><g transform="translate(357.904245, 96.057689)"><g><path d="M 14.453125 -4.4375 C 18.898438 -4.4375 21.125 -5.859375 21.125 -8.703125 C 21.125 -9.578125 20.679688 -10.242188 19.796875 -10.703125 C 18.921875 -11.171875 17.8125 -11.582031 16.46875 -11.9375 C 15.125 -12.300781 13.671875 -12.671875 12.109375 -13.046875 C 10.554688 -13.429688 9.109375 -13.960938 7.765625 -14.640625 C 6.429688 -15.316406 5.320312 -16.203125 4.4375 -17.296875 C 3.5625 -18.398438 3.125 -19.753906 3.125 -21.359375 C 3.125 -22.960938 3.363281 -24.34375 3.84375 -25.5 C 4.320312 -26.65625 5.039062 -27.65625 6 -28.5 C 8.125 -30.300781 11.0625 -31.203125 14.8125 -31.203125 C 17.8125 -31.203125 20.710938 -30.703125 23.515625 -29.703125 C 24.078125 -29.503906 24.507812 -29.179688 24.8125 -28.734375 C 25.113281 -28.296875 25.265625 -27.804688 25.265625 -27.265625 C 25.265625 -26.722656 25.03125 -26.210938 24.5625 -25.734375 C 24.101562 -25.253906 23.65625 -25.015625 23.21875 -25.015625 C 22.78125 -25.015625 22.238281 -25.113281 21.59375 -25.3125 C 19.675781 -25.914062 17.578125 -26.21875 15.296875 -26.21875 C 13.015625 -26.21875 11.285156 -25.816406 10.109375 -25.015625 C 8.929688 -24.210938 8.34375 -23.25 8.34375 -22.125 C 8.34375 -21.007812 8.789062 -20.179688 9.6875 -19.640625 C 10.59375 -19.109375 11.703125 -18.660156 13.015625 -18.296875 C 14.335938 -17.941406 15.785156 -17.582031 17.359375 -17.21875 C 18.941406 -16.863281 20.394531 -16.363281 21.71875 -15.71875 C 24.84375 -14.113281 26.40625 -11.632812 26.40625 -8.28125 C 26.40625 -5.71875 25.441406 -3.640625 23.515625 -2.046875 C 21.441406 -0.285156 18.539062 0.59375 14.8125 0.59375 C 10.78125 0.59375 7.144531 -0.300781 3.90625 -2.09375 C 3.21875 -2.570312 2.875 -3.171875 2.875 -3.890625 C 2.875 -4.617188 3.09375 -5.234375 3.53125 -5.734375 C 3.976562 -6.234375 4.460938 -6.484375 4.984375 -6.484375 C 5.503906 -6.484375 6.125 -6.320312 6.84375 -6 C 9.15625 -4.957031 11.691406 -4.4375 14.453125 -4.4375 Z M 14.453125 -4.4375 "/></g></g></g></svg>