<svg xmlns="http://www.w3.org/2000/svg" xmlns:xlink="http://www.w3.org/1999/xlink" width="600" zoomAndPan="magnify" viewBox="0 0 450 149.999998" height="200" preserveAspectRatio="xMidYMid meet" version="1.0"><defs><g/><clipPath id="87c9948cc1"><path d="M 61.660156 21.460938 L 116.410156 21.460938 L 116.410156 81.460938 L 61.660156 81.460938 Z M 61.660156 21.460938 " clip-rule="nonzero"/></clipPath></defs><g clip-path="url(#87c9948cc1)"><path fill="#2e7ef6" d="M 88.847656 81.460938 C 73.839844 81.460938 61.660156 69.28125 61.660156 54.277344 C 61.660156 46.804688 64.695312 40.046875 69.582031 35.132812 L 69.605469 35.15625 C 70.59375 33.792969 72.191406 32.894531 74.003906 32.894531 C 77.003906 32.894531 79.441406 35.332031 79.441406 38.332031 C 79.441406 40.171875 78.519531 41.792969 77.121094 42.777344 L 77.140625 42.796875 C 74.203125 45.753906 72.363281 49.792969 72.363281 54.277344 C 72.363281 63.324219 79.742188 70.667969 88.832031 70.667969 C 97.921875 70.667969 105.296875 63.324219 105.296875 54.277344 C 105.296875 50.183594 103.757812 46.472656 101.257812 43.605469 C 99.769531 42.636719 98.777344 40.964844 98.777344 39.054688 C 98.777344 36.054688 101.214844 33.617188 104.21875 33.617188 C 105.683594 33.617188 107.007812 34.210938 107.988281 35.15625 L 108.066406 35.078125 C 112.980469 39.996094 116.027344 46.777344 116.027344 54.277344 C 116.027344 69.28125 103.851562 81.464844 88.847656 81.464844 Z M 88.84375 54.464844 C 85.832031 54.464844 83.40625 51.996094 83.40625 48.929688 L 83.40625 27 C 83.40625 23.933594 85.832031 21.464844 88.84375 21.464844 C 91.855469 21.464844 94.28125 23.933594 94.28125 27 L 94.28125 48.929688 C 94.28125 51.996094 91.855469 54.464844 88.84375 54.464844 Z M 88.84375 54.464844 " fill-opacity="1" fill-rule="evenodd"/></g><g fill="#2e7ef6" fill-opacity="1"><g transform="translate(116.033654, 80.826921)"><g><path d="M 20.046875 -26.15625 C 16.523438 -26.15625 13.242188 -24.238281 10.203125 -20.40625 L 10.203125 -2.40625 C 10.203125 -1.644531 9.929688 -1.003906 9.390625 -0.484375 C 8.847656 0.0351562 8.195312 0.296875 7.4375 0.296875 C 6.675781 0.296875 6.035156 0.0351562 5.515625 -0.484375 C 4.992188 -1.003906 4.734375 -1.644531 4.734375 -2.40625 L 4.734375 -28.140625 C 4.734375 -28.941406 4.992188 -29.601562 5.515625 -30.125 C 6.035156 -30.644531 6.675781 -30.90625 7.4375 -30.90625 C 8.195312 -30.90625 8.847656 -30.644531 9.390625 -30.125 C 9.929688 -29.601562 10.203125 -28.941406 10.203125 -28.140625 L 10.203125 -25.6875 C 11.796875 -27.363281 13.175781 -28.539062 14.34375 -29.21875 C 16.625 -30.539062 18.789062 -31.203125 20.84375 -31.203125 C 22.90625 -31.203125 24.597656 -30.890625 25.921875 -30.265625 C 27.242188 -29.648438 28.363281 -28.800781 29.28125 -27.71875 C 31.15625 -25.519531 32.09375 -22.757812 32.09375 -19.4375 L 32.09375 -2.40625 C 32.09375 -1.644531 31.820312 -1.003906 31.28125 -0.484375 C 30.75 0.0351562 30.101562 0.296875 29.34375 0.296875 C 28.582031 0.296875 27.941406 0.0351562 27.421875 -0.484375 C 26.898438 -1.003906 26.640625 -1.644531 26.640625 -2.40625 L 26.640625 -18.84375 C 26.640625 -21.125 26.128906 -22.910156 25.109375 -24.203125 C 24.085938 -25.503906 22.398438 -26.15625 20.046875 -26.15625 Z M 20.046875 -26.15625 "/></g></g></g><g fill="#b8b8b8" fill-opacity="1"><g transform="translate(152.584433, 80.826921)"><g><path d="M 18.484375 -4.5625 C 25.484375 -4.5625 28.984375 -6.859375 28.984375 -11.453125 C 28.984375 -13.378906 27.640625 -14.921875 24.953125 -16.078125 C 23.796875 -16.554688 22.445312 -16.984375 20.90625 -17.359375 C 19.363281 -17.742188 17.800781 -18.15625 16.21875 -18.59375 C 14.644531 -19.039062 13.085938 -19.539062 11.546875 -20.09375 C 10.003906 -20.65625 8.632812 -21.378906 7.4375 -22.265625 C 4.800781 -24.265625 3.484375 -26.90625 3.484375 -30.1875 C 3.484375 -33.695312 4.800781 -36.570312 7.4375 -38.8125 C 10.320312 -41.257812 14.179688 -42.484375 19.015625 -42.484375 C 23.378906 -42.484375 27.359375 -41.820312 30.953125 -40.5 C 32.078125 -40.101562 32.640625 -39.300781 32.640625 -38.09375 C 32.640625 -37.5 32.425781 -36.929688 32 -36.390625 C 31.582031 -35.847656 31.125 -35.578125 30.625 -35.578125 C 30.125 -35.578125 29.4375 -35.738281 28.5625 -36.0625 C 25.957031 -36.976562 22.976562 -37.4375 19.625 -37.4375 C 16.539062 -37.4375 14 -36.859375 12 -35.703125 C 9.957031 -34.503906 8.9375 -32.800781 8.9375 -30.59375 C 8.9375 -28.320312 10.257812 -26.601562 12.90625 -25.4375 C 14.101562 -24.875 15.460938 -24.410156 16.984375 -24.046875 C 18.503906 -23.691406 20.0625 -23.3125 21.65625 -22.90625 C 23.257812 -22.507812 24.820312 -22.039062 26.34375 -21.5 C 27.863281 -20.96875 29.222656 -20.257812 30.421875 -19.375 C 33.054688 -17.457031 34.375 -14.695312 34.375 -11.09375 C 34.375 -7.65625 32.992188 -4.859375 30.234375 -2.703125 C 27.398438 -0.503906 23.660156 0.59375 19.015625 0.59375 C 13.941406 0.59375 9.179688 -0.363281 4.734375 -2.28125 C 4.296875 -2.476562 3.90625 -2.796875 3.5625 -3.234375 C 3.226562 -3.679688 3.0625 -4.210938 3.0625 -4.828125 C 3.0625 -5.453125 3.28125 -6.015625 3.71875 -6.515625 C 4.15625 -7.015625 4.664062 -7.265625 5.25 -7.265625 C 5.832031 -7.265625 6.550781 -7.070312 7.40625 -6.6875 C 8.269531 -6.3125 9.679688 -5.863281 11.640625 -5.34375 C 13.597656 -4.820312 15.878906 -4.5625 18.484375 -4.5625 Z M 18.484375 -4.5625 "/></g></g></g><g fill="#b8b8b8" fill-opacity="1"><g transform="translate(189.544395, 80.826921)"><g><path d="M 8.453125 -13.375 C 8.773438 -10.65625 9.796875 -8.492188 11.515625 -6.890625 C 13.234375 -5.296875 15.632812 -4.5 18.71875 -4.5 C 21.800781 -4.5 24.378906 -5.019531 26.453125 -6.0625 C 27.179688 -6.414062 27.800781 -6.59375 28.3125 -6.59375 C 28.832031 -6.59375 29.332031 -6.375 29.8125 -5.9375 C 30.300781 -5.5 30.546875 -5 30.546875 -4.4375 C 30.546875 -3.394531 30.113281 -2.644531 29.25 -2.1875 C 28.382812 -1.726562 27.613281 -1.335938 26.9375 -1.015625 C 26.257812 -0.703125 25.519531 -0.425781 24.71875 -0.1875 C 22.914062 0.332031 20.835938 0.59375 18.484375 0.59375 C 13.554688 0.59375 9.734375 -0.785156 7.015625 -3.546875 C 4.296875 -6.304688 2.9375 -10.222656 2.9375 -15.296875 C 2.9375 -19.703125 4.078125 -23.363281 6.359375 -26.28125 C 8.921875 -29.5625 12.5625 -31.203125 17.28125 -31.203125 C 21.757812 -31.203125 25.300781 -29.679688 27.90625 -26.640625 C 30.34375 -23.796875 31.5625 -20.273438 31.5625 -16.078125 C 31.5625 -15.316406 31.3125 -14.675781 30.8125 -14.15625 C 30.3125 -13.632812 29.640625 -13.375 28.796875 -13.375 Z M 17.28125 -26.578125 C 13.71875 -26.578125 11.117188 -25 9.484375 -21.84375 C 8.878906 -20.71875 8.535156 -19.375 8.453125 -17.8125 L 26.15625 -17.8125 C 26 -20.65625 24.960938 -22.898438 23.046875 -24.546875 C 21.441406 -25.898438 19.519531 -26.578125 17.28125 -26.578125 Z M 17.28125 -26.578125 "/></g></g></g><g fill="#b8b8b8" fill-opacity="1"><g transform="translate(223.744363, 80.826921)"><g><path d="M 27.65625 -26.640625 L 27.65625 -28.140625 C 27.65625 -28.898438 27.914062 -29.550781 28.4375 -30.09375 C 28.957031 -30.632812 29.597656 -30.90625 30.359375 -30.90625 C 31.117188 -30.90625 31.769531 -30.632812 32.3125 -30.09375 C 32.851562 -29.550781 33.125 -28.898438 33.125 -28.140625 L 33.125 -1.3125 C 33.125 3.757812 31.898438 7.644531 29.453125 10.34375 C 27.015625 13.050781 23.535156 14.40625 19.015625 14.40625 C 14.210938 14.40625 9.9375 13.363281 6.1875 11.28125 C 5.457031 10.84375 5.09375 10.234375 5.09375 9.453125 C 5.09375 8.671875 5.320312 8.019531 5.78125 7.5 C 6.25 6.976562 6.734375 6.71875 7.234375 6.71875 C 7.734375 6.71875 8.179688 6.796875 8.578125 6.953125 C 11.617188 8.472656 14.921875 9.234375 18.484375 9.234375 C 24.597656 9.234375 27.65625 5.972656 27.65625 -0.546875 L 27.65625 -4.5625 C 24.820312 -1.519531 21.40625 0 17.40625 0 C 13.601562 0 10.34375 -1.28125 7.625 -3.84375 C 4.457031 -6.757812 2.875 -10.675781 2.875 -15.59375 C 2.875 -20.519531 4.457031 -24.441406 7.625 -27.359375 C 10.34375 -29.921875 13.648438 -31.203125 17.546875 -31.203125 C 21.453125 -31.203125 24.820312 -29.679688 27.65625 -26.640625 Z M 27.65625 -21.78125 C 26.539062 -22.9375 25.257812 -23.960938 23.8125 -24.859375 C 22.375 -25.765625 20.773438 -26.21875 19.015625 -26.21875 C 17.253906 -26.21875 15.753906 -26 14.515625 -25.5625 C 13.273438 -25.125 12.195312 -24.484375 11.28125 -23.640625 C 9.320312 -21.796875 8.34375 -19.113281 8.34375 -15.59375 C 8.34375 -10.4375 10.398438 -7.117188 14.515625 -5.640625 C 15.753906 -5.203125 17.253906 -4.984375 19.015625 -4.984375 C 21.941406 -4.984375 24.820312 -6.460938 27.65625 -9.421875 Z M 27.65625 -21.78125 "/></g></g></g><g fill="#b8b8b8" fill-opacity="1"><g transform="translate(261.604324, 80.826921)"><g><path d="M 16.5625 -4.4375 C 20.082031 -4.4375 23.363281 -6.359375 26.40625 -10.203125 L 26.40625 -28.203125 C 26.40625 -28.960938 26.671875 -29.601562 27.203125 -30.125 C 27.742188 -30.644531 28.394531 -30.90625 29.15625 -30.90625 C 29.914062 -30.90625 30.554688 -30.644531 31.078125 -30.125 C 31.597656 -29.601562 31.859375 -28.960938 31.859375 -28.203125 L 31.859375 -2.453125 C 31.859375 -1.660156 31.597656 -1.003906 31.078125 -0.484375 C 30.554688 0.0351562 29.914062 0.296875 29.15625 0.296875 C 28.394531 0.296875 27.742188 0.0351562 27.203125 -0.484375 C 26.671875 -1.003906 26.40625 -1.660156 26.40625 -2.453125 L 26.40625 -4.921875 C 24.800781 -3.242188 23.421875 -2.0625 22.265625 -1.375 C 19.984375 -0.0625 17.8125 0.59375 15.75 0.59375 C 13.6875 0.59375 11.992188 0.285156 10.671875 -0.328125 C 9.359375 -0.953125 8.238281 -1.800781 7.3125 -2.875 C 5.4375 -5.082031 4.5 -7.84375 4.5 -11.15625 L 4.5 -28.203125 C 4.5 -28.960938 4.769531 -29.601562 5.3125 -30.125 C 5.851562 -30.644531 6.503906 -30.90625 7.265625 -30.90625 C 8.023438 -30.90625 8.660156 -30.644531 9.171875 -30.125 C 9.691406 -29.601562 9.953125 -28.960938 9.953125 -28.203125 L 9.953125 -11.765625 C 9.953125 -9.484375 10.460938 -7.691406 11.484375 -6.390625 C 12.503906 -5.085938 14.195312 -4.4375 16.5625 -4.4375 Z M 16.5625 -4.4375 "/></g></g></g><g fill="#b8b8b8" fill-opacity="1"><g transform="translate(298.204289, 80.826921)"><g><path d="M 10.203125 -25.5625 C 13.003906 -29.320312 16.144531 -31.203125 19.625 -31.203125 L 19.921875 -31.203125 C 20.679688 -31.203125 21.3125 -30.941406 21.8125 -30.421875 C 22.3125 -29.898438 22.5625 -29.25 22.5625 -28.46875 C 22.5625 -27.6875 22.300781 -27.066406 21.78125 -26.609375 C 21.257812 -26.148438 20.597656 -25.921875 19.796875 -25.921875 L 19.5 -25.921875 C 17.5 -25.921875 15.707031 -25.429688 14.125 -24.453125 C 12.550781 -23.472656 11.242188 -22.203125 10.203125 -20.640625 L 10.203125 -2.40625 C 10.203125 -1.644531 9.929688 -1.003906 9.390625 -0.484375 C 8.847656 0.0351562 8.195312 0.296875 7.4375 0.296875 C 6.675781 0.296875 6.035156 0.0351562 5.515625 -0.484375 C 4.992188 -1.003906 4.734375 -1.644531 4.734375 -2.40625 L 4.734375 -28.140625 C 4.734375 -28.898438 4.992188 -29.550781 5.515625 -30.09375 C 6.035156 -30.632812 6.675781 -30.90625 7.4375 -30.90625 C 8.195312 -30.90625 8.847656 -30.632812 9.390625 -30.09375 C 9.929688 -29.550781 10.203125 -28.898438 10.203125 -28.140625 Z M 10.203125 -25.5625 "/></g></g></g><g fill="#b8b8b8" fill-opacity="1"><g transform="translate(321.42427, 80.826921)"><g><path d="M 18.234375 -31.203125 C 22.878906 -31.203125 26.601562 -29.738281 29.40625 -26.8125 C 32.195312 -23.851562 33.59375 -20.015625 33.59375 -15.296875 C 33.59375 -10.578125 32.195312 -6.738281 29.40625 -3.78125 C 26.601562 -0.863281 22.878906 0.59375 18.234375 0.59375 C 13.554688 0.59375 9.835938 -0.863281 7.078125 -3.78125 C 4.273438 -6.695312 2.875 -10.535156 2.875 -15.296875 C 2.875 -20.054688 4.273438 -23.894531 7.078125 -26.8125 C 9.835938 -29.738281 13.554688 -31.203125 18.234375 -31.203125 Z M 11.546875 -6.859375 C 12.484375 -6.003906 13.539062 -5.375 14.71875 -4.96875 C 15.90625 -4.570312 17.066406 -4.375 18.203125 -4.375 C 19.347656 -4.375 20.507812 -4.570312 21.6875 -4.96875 C 22.863281 -5.375 23.9375 -6 24.90625 -6.84375 C 27.0625 -8.800781 28.140625 -11.640625 28.140625 -15.359375 C 28.140625 -18.960938 27.0625 -21.765625 24.90625 -23.765625 C 23.101562 -25.398438 20.878906 -26.21875 18.234375 -26.21875 C 13.921875 -26.21875 10.921875 -24.28125 9.234375 -20.40625 C 8.640625 -19 8.34375 -17.304688 8.34375 -15.328125 C 8.34375 -13.347656 8.640625 -11.65625 9.234375 -10.25 C 9.835938 -8.851562 10.609375 -7.722656 11.546875 -6.859375 Z M 11.546875 -6.859375 "/></g></g></g><g fill="#b8b8b8" fill-opacity="1"><g transform="translate(357.904245, 80.826921)"><g><path d="M 14.453125 -4.4375 C 18.898438 -4.4375 21.125 -5.859375 21.125 -8.703125 C 21.125 -9.578125 20.679688 -10.242188 19.796875 -10.703125 C 18.921875 -11.171875 17.8125 -11.582031 16.46875 -11.9375 C 15.125 -12.300781 13.671875 -12.671875 12.109375 -13.046875 C 10.554688 -13.429688 9.109375 -13.960938 7.765625 -14.640625 C 6.429688 -15.316406 5.320312 -16.203125 4.4375 -17.296875 C 3.5625 -18.398438 3.125 -19.753906 3.125 -21.359375 C 3.125 -22.960938 3.363281 -24.34375 3.84375 -25.5 C 4.320312 -26.65625 5.039062 -27.65625 6 -28.5 C 8.125 -30.300781 11.0625 -31.203125 14.8125 -31.203125 C 17.8125 -31.203125 20.710938 -30.703125 23.515625 -29.703125 C 24.078125 -29.503906 24.507812 -29.179688 24.8125 -28.734375 C 25.113281 -28.296875 25.265625 -27.804688 25.265625 -27.265625 C 25.265625 -26.722656 25.03125 -26.210938 24.5625 -25.734375 C 24.101562 -25.253906 23.65625 -25.015625 23.21875 -25.015625 C 22.78125 -25.015625 22.238281 -25.113281 21.59375 -25.3125 C 19.675781 -25.914062 17.578125 -26.21875 15.296875 -26.21875 C 13.015625 -26.21875 11.285156 -25.816406 10.109375 -25.015625 C 8.929688 -24.210938 8.34375 -23.25 8.34375 -22.125 C 8.34375 -21.007812 8.789062 -20.179688 9.6875 -19.640625 C 10.59375 -19.109375 11.703125 -18.660156 13.015625 -18.296875 C 14.335938 -17.941406 15.785156 -17.582031 17.359375 -17.21875 C 18.941406 -16.863281 20.394531 -16.363281 21.71875 -15.71875 C 24.84375 -14.113281 26.40625 -11.632812 26.40625 -8.28125 C 26.40625 -5.71875 25.441406 -3.640625 23.515625 -2.046875 C 21.441406 -0.285156 18.539062 0.59375 14.8125 0.59375 C 10.78125 0.59375 7.144531 -0.300781 3.90625 -2.09375 C 3.21875 -2.570312 2.875 -3.171875 2.875 -3.890625 C 2.875 -4.617188 3.09375 -5.234375 3.53125 -5.734375 C 3.976562 -6.234375 4.460938 -6.484375 4.984375 -6.484375 C 5.503906 -6.484375 6.125 -6.320312 6.84375 -6 C 9.15625 -4.957031 11.691406 -4.4375 14.453125 -4.4375 Z M 14.453125 -4.4375 "/></g></g></g><g fill="#2e7ef6" fill-opacity="1"><g transform="translate(157.147714, 116.826924)"><g><path d="M 10 -0.90625 C 10.050781 -0.78125 10.078125 -0.648438 10.078125 -0.515625 C 10.078125 -0.378906 10.015625 -0.242188 9.890625 -0.109375 C 9.773438 0.015625 9.585938 0.078125 9.328125 0.078125 C 9.066406 0.078125 8.878906 -0.0625 8.765625 -0.34375 L 7.78125 -2.6875 L 2.6875 -2.6875 L 1.703125 -0.34375 C 1.585938 -0.0625 1.398438 0.078125 1.140625 0.078125 C 0.878906 0.078125 0.6875 0.015625 0.5625 -0.109375 C 0.445312 -0.242188 0.390625 -0.378906 0.390625 -0.515625 C 0.390625 -0.648438 0.414062 -0.78125 0.46875 -0.90625 L 4.296875 -9.9375 C 4.472656 -10.34375 4.757812 -10.546875 5.15625 -10.546875 L 5.3125 -10.546875 C 5.707031 -10.546875 6 -10.34375 6.1875 -9.9375 Z M 7.265625 -3.9375 L 5.234375 -8.8125 L 3.203125 -3.9375 Z M 7.265625 -3.9375 "/></g></g></g><g fill="#2e7ef6" fill-opacity="1"><g transform="translate(167.594602, 116.826924)"><g><path d="M 4.8125 -1.125 C 5.375 -1.125 5.910156 -1.265625 6.421875 -1.546875 C 6.597656 -1.640625 6.753906 -1.6875 6.890625 -1.6875 C 7.035156 -1.6875 7.160156 -1.625 7.265625 -1.5 C 7.378906 -1.375 7.4375 -1.21875 7.4375 -1.03125 C 7.4375 -0.851562 7.320312 -0.691406 7.09375 -0.546875 C 6.382812 -0.078125 5.582031 0.15625 4.6875 0.15625 C 3.582031 0.15625 2.648438 -0.195312 1.890625 -0.90625 C 1.085938 -1.644531 0.6875 -2.617188 0.6875 -3.828125 C 0.6875 -5.035156 1.085938 -6.007812 1.890625 -6.75 C 2.648438 -7.445312 3.582031 -7.796875 4.6875 -7.796875 C 5.289062 -7.796875 5.785156 -7.71875 6.171875 -7.5625 C 6.554688 -7.40625 6.863281 -7.253906 7.09375 -7.109375 C 7.320312 -6.960938 7.4375 -6.796875 7.4375 -6.609375 C 7.4375 -6.429688 7.378906 -6.273438 7.265625 -6.140625 C 7.160156 -6.015625 7.050781 -5.953125 6.9375 -5.953125 C 6.769531 -5.953125 6.597656 -6.003906 6.421875 -6.109375 C 5.910156 -6.390625 5.375 -6.53125 4.8125 -6.53125 C 3.9375 -6.53125 3.257812 -6.28125 2.78125 -5.78125 C 2.300781 -5.289062 2.0625 -4.640625 2.0625 -3.828125 C 2.0625 -3.015625 2.300781 -2.359375 2.78125 -1.859375 C 3.257812 -1.367188 3.9375 -1.125 4.8125 -1.125 Z M 4.8125 -1.125 "/></g></g></g><g fill="#2e7ef6" fill-opacity="1"><g transform="translate(175.628365, 116.826924)"><g><path d="M 3.96875 -1.046875 C 4.238281 -1.046875 4.429688 -1.066406 4.546875 -1.109375 C 4.660156 -1.160156 4.785156 -1.1875 4.921875 -1.1875 C 5.054688 -1.1875 5.175781 -1.132812 5.28125 -1.03125 C 5.394531 -0.9375 5.453125 -0.785156 5.453125 -0.578125 C 5.453125 -0.378906 5.351562 -0.238281 5.15625 -0.15625 C 4.726562 0.0507812 4.359375 0.15625 4.046875 0.15625 C 3.742188 0.15625 3.46875 0.140625 3.21875 0.109375 C 2.96875 0.078125 2.726562 -0.0078125 2.5 -0.15625 C 1.957031 -0.46875 1.6875 -1.023438 1.6875 -1.828125 L 1.6875 -6.484375 L 0.609375 -6.484375 C 0.421875 -6.484375 0.328125 -6.578125 0.328125 -6.765625 C 0.328125 -6.859375 0.375 -6.941406 0.46875 -7.015625 L 2.5 -9.015625 C 2.59375 -9.109375 2.675781 -9.15625 2.75 -9.15625 C 2.832031 -9.15625 2.898438 -9.125 2.953125 -9.0625 C 3.015625 -9 3.046875 -8.925781 3.046875 -8.84375 L 3.046875 -7.65625 L 4.734375 -7.65625 C 4.910156 -7.65625 5.050781 -7.597656 5.15625 -7.484375 C 5.269531 -7.367188 5.328125 -7.226562 5.328125 -7.0625 C 5.328125 -6.894531 5.269531 -6.753906 5.15625 -6.640625 C 5.050781 -6.535156 4.910156 -6.484375 4.734375 -6.484375 L 3.046875 -6.484375 L 3.046875 -1.953125 C 3.046875 -1.566406 3.160156 -1.304688 3.390625 -1.171875 C 3.515625 -1.085938 3.707031 -1.046875 3.96875 -1.046875 Z M 3.96875 -1.046875 "/></g></g></g><g fill="#2e7ef6" fill-opacity="1"><g transform="translate(181.383896, 116.826924)"><g><path d="M 1.25 -7.03125 C 1.25 -7.226562 1.3125 -7.390625 1.4375 -7.515625 C 1.570312 -7.648438 1.734375 -7.71875 1.921875 -7.71875 C 2.117188 -7.71875 2.28125 -7.648438 2.40625 -7.515625 C 2.539062 -7.390625 2.609375 -7.226562 2.609375 -7.03125 L 2.609375 -0.59375 C 2.609375 -0.40625 2.539062 -0.242188 2.40625 -0.109375 C 2.28125 0.015625 2.117188 0.078125 1.921875 0.078125 C 1.734375 0.078125 1.570312 0.015625 1.4375 -0.109375 C 1.3125 -0.242188 1.25 -0.40625 1.25 -0.59375 Z M 2.75 -9.96875 C 2.75 -9.757812 2.671875 -9.578125 2.515625 -9.421875 C 2.367188 -9.273438 2.191406 -9.203125 1.984375 -9.203125 L 1.890625 -9.203125 C 1.679688 -9.203125 1.5 -9.273438 1.34375 -9.421875 C 1.195312 -9.578125 1.125 -9.757812 1.125 -9.96875 L 1.125 -10.03125 C 1.125 -10.238281 1.195312 -10.414062 1.34375 -10.5625 C 1.5 -10.71875 1.679688 -10.796875 1.890625 -10.796875 L 1.984375 -10.796875 C 2.191406 -10.796875 2.367188 -10.71875 2.515625 -10.5625 C 2.671875 -10.414062 2.75 -10.238281 2.75 -10.03125 Z M 2.75 -9.96875 "/></g></g></g><g fill="#2e7ef6" fill-opacity="1"><g transform="translate(185.235908, 116.826924)"><g><path d="M 6.265625 -7.328125 C 6.390625 -7.585938 6.613281 -7.71875 6.9375 -7.71875 C 7.09375 -7.71875 7.234375 -7.648438 7.359375 -7.515625 C 7.492188 -7.378906 7.5625 -7.253906 7.5625 -7.140625 C 7.5625 -6.984375 7.535156 -6.84375 7.484375 -6.71875 L 4.875 -0.484375 C 4.800781 -0.328125 4.691406 -0.191406 4.546875 -0.078125 C 4.398438 0.0234375 4.234375 0.078125 4.046875 0.078125 L 3.90625 0.078125 C 3.707031 0.078125 3.535156 0.0234375 3.390625 -0.078125 C 3.253906 -0.191406 3.148438 -0.328125 3.078125 -0.484375 L 0.46875 -6.71875 C 0.414062 -6.84375 0.390625 -6.972656 0.390625 -7.109375 C 0.390625 -7.242188 0.453125 -7.378906 0.578125 -7.515625 C 0.710938 -7.648438 0.859375 -7.71875 1.015625 -7.71875 C 1.335938 -7.71875 1.5625 -7.585938 1.6875 -7.328125 L 3.96875 -1.515625 Z M 6.265625 -7.328125 "/></g></g></g><g fill="#2e7ef6" fill-opacity="1"><g transform="translate(193.179744, 116.826924)"><g><path d="M 1.46875 -7.265625 C 2.3125 -7.617188 3.179688 -7.796875 4.078125 -7.796875 C 5.097656 -7.796875 5.890625 -7.488281 6.453125 -6.875 C 6.953125 -6.332031 7.203125 -5.65625 7.203125 -4.84375 L 7.203125 -0.59375 C 7.203125 -0.40625 7.132812 -0.242188 7 -0.109375 C 6.863281 0.015625 6.703125 0.078125 6.515625 0.078125 C 6.316406 0.078125 6.148438 0.015625 6.015625 -0.109375 C 5.890625 -0.242188 5.828125 -0.40625 5.828125 -0.59375 L 5.828125 -0.984375 C 5.566406 -0.703125 5.207031 -0.441406 4.75 -0.203125 C 4.289062 0.0351562 3.710938 0.15625 3.015625 0.15625 C 2.328125 0.15625 1.753906 -0.046875 1.296875 -0.453125 C 0.804688 -0.867188 0.5625 -1.414062 0.5625 -2.09375 C 0.5625 -2.832031 0.84375 -3.414062 1.40625 -3.84375 C 2.019531 -4.300781 2.890625 -4.53125 4.015625 -4.53125 L 5.828125 -4.53125 L 5.828125 -4.65625 C 5.828125 -5.320312 5.660156 -5.796875 5.328125 -6.078125 C 5.003906 -6.367188 4.503906 -6.515625 3.828125 -6.515625 C 3.242188 -6.515625 2.578125 -6.394531 1.828125 -6.15625 C 1.742188 -6.132812 1.648438 -6.125 1.546875 -6.125 C 1.453125 -6.125 1.347656 -6.175781 1.234375 -6.28125 C 1.128906 -6.382812 1.078125 -6.546875 1.078125 -6.765625 C 1.078125 -6.984375 1.207031 -7.148438 1.46875 -7.265625 Z M 1.9375 -2.25 C 1.9375 -1.445312 2.46875 -1.046875 3.53125 -1.046875 C 4 -1.046875 4.429688 -1.160156 4.828125 -1.390625 C 5.234375 -1.617188 5.566406 -1.878906 5.828125 -2.171875 L 5.828125 -3.4375 L 4.203125 -3.4375 C 3.492188 -3.4375 2.9375 -3.34375 2.53125 -3.15625 C 2.132812 -2.976562 1.9375 -2.675781 1.9375 -2.25 Z M 4.234375 -10.546875 C 4.328125 -10.734375 4.476562 -10.828125 4.6875 -10.828125 C 5.082031 -10.828125 5.28125 -10.644531 5.28125 -10.28125 C 5.28125 -10.132812 5.226562 -10.007812 5.125 -9.90625 L 4.09375 -8.671875 C 4 -8.554688 3.890625 -8.5 3.765625 -8.5 C 3.640625 -8.5 3.539062 -8.535156 3.46875 -8.609375 C 3.394531 -8.691406 3.359375 -8.773438 3.359375 -8.859375 C 3.359375 -9.015625 3.394531 -9.125 3.46875 -9.1875 Z M 4.234375 -10.546875 "/></g></g></g><g fill="#d9d9d9" fill-opacity="1"><g transform="translate(201.50318, 116.826924)"><g/></g></g><g fill="#b8b8b8" fill-opacity="1"><g transform="translate(205.405524, 116.826924)"><g><path d="M 3.96875 -1.046875 C 4.238281 -1.046875 4.429688 -1.066406 4.546875 -1.109375 C 4.660156 -1.160156 4.785156 -1.1875 4.921875 -1.1875 C 5.054688 -1.1875 5.175781 -1.132812 5.28125 -1.03125 C 5.394531 -0.9375 5.453125 -0.785156 5.453125 -0.578125 C 5.453125 -0.378906 5.351562 -0.238281 5.15625 -0.15625 C 4.726562 0.0507812 4.359375 0.15625 4.046875 0.15625 C 3.742188 0.15625 3.46875 0.140625 3.21875 0.109375 C 2.96875 0.078125 2.726562 -0.0078125 2.5 -0.15625 C 1.957031 -0.46875 1.6875 -1.023438 1.6875 -1.828125 L 1.6875 -6.484375 L 0.609375 -6.484375 C 0.421875 -6.484375 0.328125 -6.578125 0.328125 -6.765625 C 0.328125 -6.859375 0.375 -6.941406 0.46875 -7.015625 L 2.5 -9.015625 C 2.59375 -9.109375 2.675781 -9.15625 2.75 -9.15625 C 2.832031 -9.15625 2.898438 -9.125 2.953125 -9.0625 C 3.015625 -9 3.046875 -8.925781 3.046875 -8.84375 L 3.046875 -7.65625 L 4.734375 -7.65625 C 4.910156 -7.65625 5.050781 -7.597656 5.15625 -7.484375 C 5.269531 -7.367188 5.328125 -7.226562 5.328125 -7.0625 C 5.328125 -6.894531 5.269531 -6.753906 5.15625 -6.640625 C 5.050781 -6.535156 4.910156 -6.484375 4.734375 -6.484375 L 3.046875 -6.484375 L 3.046875 -1.953125 C 3.046875 -1.566406 3.160156 -1.304688 3.390625 -1.171875 C 3.515625 -1.085938 3.707031 -1.046875 3.96875 -1.046875 Z M 3.96875 -1.046875 "/></g></g></g><g fill="#b8b8b8" fill-opacity="1"><g transform="translate(211.161055, 116.826924)"><g><path d="M 2.546875 -6.390625 C 3.242188 -7.328125 4.03125 -7.796875 4.90625 -7.796875 L 4.984375 -7.796875 C 5.171875 -7.796875 5.328125 -7.726562 5.453125 -7.59375 C 5.578125 -7.46875 5.640625 -7.304688 5.640625 -7.109375 C 5.640625 -6.921875 5.570312 -6.769531 5.4375 -6.65625 C 5.3125 -6.539062 5.148438 -6.484375 4.953125 -6.484375 L 4.875 -6.484375 C 4.375 -6.484375 3.925781 -6.359375 3.53125 -6.109375 C 3.132812 -5.867188 2.804688 -5.550781 2.546875 -5.15625 L 2.546875 -0.59375 C 2.546875 -0.40625 2.476562 -0.242188 2.34375 -0.109375 C 2.207031 0.015625 2.046875 0.078125 1.859375 0.078125 C 1.671875 0.078125 1.507812 0.015625 1.375 -0.109375 C 1.25 -0.242188 1.1875 -0.40625 1.1875 -0.59375 L 1.1875 -7.03125 C 1.1875 -7.21875 1.25 -7.378906 1.375 -7.515625 C 1.507812 -7.648438 1.671875 -7.71875 1.859375 -7.71875 C 2.046875 -7.71875 2.207031 -7.648438 2.34375 -7.515625 C 2.476562 -7.378906 2.546875 -7.21875 2.546875 -7.03125 Z M 2.546875 -6.390625 "/></g></g></g><g fill="#b8b8b8" fill-opacity="1"><g transform="translate(216.96155, 116.826924)"><g><path d="M 1.46875 -7.265625 C 2.3125 -7.617188 3.179688 -7.796875 4.078125 -7.796875 C 5.097656 -7.796875 5.890625 -7.488281 6.453125 -6.875 C 6.953125 -6.332031 7.203125 -5.65625 7.203125 -4.84375 L 7.203125 -0.59375 C 7.203125 -0.40625 7.132812 -0.242188 7 -0.109375 C 6.863281 0.015625 6.703125 0.078125 6.515625 0.078125 C 6.316406 0.078125 6.148438 0.015625 6.015625 -0.109375 C 5.890625 -0.242188 5.828125 -0.40625 5.828125 -0.59375 L 5.828125 -0.984375 C 5.566406 -0.703125 5.207031 -0.441406 4.75 -0.203125 C 4.289062 0.0351562 3.710938 0.15625 3.015625 0.15625 C 2.328125 0.15625 1.753906 -0.046875 1.296875 -0.453125 C 0.804688 -0.867188 0.5625 -1.414062 0.5625 -2.09375 C 0.5625 -2.832031 0.84375 -3.414062 1.40625 -3.84375 C 2.019531 -4.300781 2.890625 -4.53125 4.015625 -4.53125 L 5.828125 -4.53125 L 5.828125 -4.65625 C 5.828125 -5.320312 5.660156 -5.796875 5.328125 -6.078125 C 5.003906 -6.367188 4.503906 -6.515625 3.828125 -6.515625 C 3.242188 -6.515625 2.578125 -6.394531 1.828125 -6.15625 C 1.742188 -6.132812 1.648438 -6.125 1.546875 -6.125 C 1.453125 -6.125 1.347656 -6.175781 1.234375 -6.28125 C 1.128906 -6.382812 1.078125 -6.546875 1.078125 -6.765625 C 1.078125 -6.984375 1.207031 -7.148438 1.46875 -7.265625 Z M 1.9375 -2.25 C 1.9375 -1.445312 2.46875 -1.046875 3.53125 -1.046875 C 4 -1.046875 4.429688 -1.160156 4.828125 -1.390625 C 5.234375 -1.617188 5.566406 -1.878906 5.828125 -2.171875 L 5.828125 -3.4375 L 4.203125 -3.4375 C 3.492188 -3.4375 2.9375 -3.34375 2.53125 -3.15625 C 2.132812 -2.976562 1.9375 -2.675781 1.9375 -2.25 Z M 1.9375 -2.25 "/></g></g></g><g fill="#b8b8b8" fill-opacity="1"><g transform="translate(225.280088, 116.826924)"><g><path d="M 5.015625 -6.546875 C 4.128906 -6.546875 3.304688 -6.0625 2.546875 -5.09375 L 2.546875 -0.59375 C 2.546875 -0.40625 2.476562 -0.242188 2.34375 -0.109375 C 2.207031 0.015625 2.046875 0.078125 1.859375 0.078125 C 1.671875 0.078125 1.507812 0.015625 1.375 -0.109375 C 1.25 -0.242188 1.1875 -0.40625 1.1875 -0.59375 L 1.1875 -7.03125 C 1.1875 -7.226562 1.25 -7.390625 1.375 -7.515625 C 1.507812 -7.648438 1.671875 -7.71875 1.859375 -7.71875 C 2.046875 -7.71875 2.207031 -7.648438 2.34375 -7.515625 C 2.476562 -7.390625 2.546875 -7.226562 2.546875 -7.03125 L 2.546875 -6.421875 C 2.953125 -6.835938 3.296875 -7.132812 3.578125 -7.3125 C 4.148438 -7.632812 4.691406 -7.796875 5.203125 -7.796875 C 5.722656 -7.796875 6.144531 -7.71875 6.46875 -7.5625 C 6.800781 -7.40625 7.082031 -7.195312 7.3125 -6.9375 C 7.789062 -6.382812 8.03125 -5.691406 8.03125 -4.859375 L 8.03125 -0.59375 C 8.03125 -0.40625 7.960938 -0.242188 7.828125 -0.109375 C 7.691406 0.015625 7.523438 0.078125 7.328125 0.078125 C 7.140625 0.078125 6.976562 0.015625 6.84375 -0.109375 C 6.71875 -0.242188 6.65625 -0.40625 6.65625 -0.59375 L 6.65625 -4.703125 C 6.65625 -5.273438 6.523438 -5.722656 6.265625 -6.046875 C 6.015625 -6.378906 5.597656 -6.546875 5.015625 -6.546875 Z M 5.015625 -6.546875 "/></g></g></g><g fill="#b8b8b8" fill-opacity="1"><g transform="translate(234.407998, 116.826924)"><g><path d="M 6.921875 -0.984375 C 6.179688 -0.222656 5.320312 0.15625 4.34375 0.15625 C 3.382812 0.15625 2.554688 -0.1875 1.859375 -0.875 C 1.097656 -1.625 0.71875 -2.609375 0.71875 -3.828125 C 0.71875 -5.023438 1.097656 -6.003906 1.859375 -6.765625 C 2.546875 -7.453125 3.375 -7.796875 4.34375 -7.796875 C 5.320312 -7.796875 6.179688 -7.414062 6.921875 -6.65625 L 6.921875 -7.046875 C 6.921875 -7.234375 6.984375 -7.390625 7.109375 -7.515625 C 7.242188 -7.648438 7.40625 -7.71875 7.59375 -7.71875 C 7.789062 -7.71875 7.953125 -7.648438 8.078125 -7.515625 C 8.210938 -7.390625 8.28125 -7.234375 8.28125 -7.046875 L 8.28125 2.828125 C 8.28125 3.035156 8.210938 3.203125 8.078125 3.328125 C 7.953125 3.460938 7.789062 3.53125 7.59375 3.53125 C 7.40625 3.53125 7.242188 3.460938 7.109375 3.328125 C 6.984375 3.203125 6.921875 3.035156 6.921875 2.828125 Z M 6.921875 -5.40625 C 6.234375 -6.15625 5.441406 -6.53125 4.546875 -6.53125 C 3.398438 -6.53125 2.644531 -6.019531 2.28125 -5 C 2.144531 -4.65625 2.078125 -4.265625 2.078125 -3.828125 C 2.078125 -2.960938 2.316406 -2.285156 2.796875 -1.796875 C 3.222656 -1.347656 3.804688 -1.125 4.546875 -1.125 C 5.441406 -1.125 6.234375 -1.5 6.921875 -2.25 Z M 6.921875 -5.40625 "/></g></g></g><g fill="#b8b8b8" fill-opacity="1"><g transform="translate(243.865658, 116.826924)"><g><path d="M 4.140625 -1.109375 C 5.015625 -1.109375 5.832031 -1.585938 6.59375 -2.546875 L 6.59375 -7.046875 C 6.59375 -7.234375 6.660156 -7.390625 6.796875 -7.515625 C 6.929688 -7.648438 7.097656 -7.71875 7.296875 -7.71875 C 7.484375 -7.71875 7.640625 -7.648438 7.765625 -7.515625 C 7.898438 -7.390625 7.96875 -7.234375 7.96875 -7.046875 L 7.96875 -0.609375 C 7.96875 -0.410156 7.898438 -0.242188 7.765625 -0.109375 C 7.640625 0.015625 7.484375 0.078125 7.296875 0.078125 C 7.097656 0.078125 6.929688 0.015625 6.796875 -0.109375 C 6.660156 -0.242188 6.59375 -0.410156 6.59375 -0.609375 L 6.59375 -1.234375 C 6.195312 -0.804688 5.851562 -0.507812 5.5625 -0.34375 C 4.988281 -0.0078125 4.445312 0.15625 3.9375 0.15625 C 3.425781 0.15625 3.003906 0.078125 2.671875 -0.078125 C 2.335938 -0.234375 2.054688 -0.445312 1.828125 -0.71875 C 1.359375 -1.269531 1.125 -1.960938 1.125 -2.796875 L 1.125 -7.046875 C 1.125 -7.234375 1.191406 -7.390625 1.328125 -7.515625 C 1.460938 -7.648438 1.625 -7.71875 1.8125 -7.71875 C 2 -7.71875 2.15625 -7.648438 2.28125 -7.515625 C 2.414062 -7.390625 2.484375 -7.234375 2.484375 -7.046875 L 2.484375 -2.9375 C 2.484375 -2.363281 2.609375 -1.914062 2.859375 -1.59375 C 3.117188 -1.269531 3.546875 -1.109375 4.140625 -1.109375 Z M 4.140625 -1.109375 "/></g></g></g><g fill="#b8b8b8" fill-opacity="1"><g transform="translate(253.00856, 116.826924)"><g><path d="M 1.25 -7.03125 C 1.25 -7.226562 1.3125 -7.390625 1.4375 -7.515625 C 1.570312 -7.648438 1.734375 -7.71875 1.921875 -7.71875 C 2.117188 -7.71875 2.28125 -7.648438 2.40625 -7.515625 C 2.539062 -7.390625 2.609375 -7.226562 2.609375 -7.03125 L 2.609375 -0.59375 C 2.609375 -0.40625 2.539062 -0.242188 2.40625 -0.109375 C 2.28125 0.015625 2.117188 0.078125 1.921875 0.078125 C 1.734375 0.078125 1.570312 0.015625 1.4375 -0.109375 C 1.3125 -0.242188 1.25 -0.40625 1.25 -0.59375 Z M 2.75 -9.96875 C 2.75 -9.757812 2.671875 -9.578125 2.515625 -9.421875 C 2.367188 -9.273438 2.191406 -9.203125 1.984375 -9.203125 L 1.890625 -9.203125 C 1.679688 -9.203125 1.5 -9.273438 1.34375 -9.421875 C 1.195312 -9.578125 1.125 -9.757812 1.125 -9.96875 L 1.125 -10.03125 C 1.125 -10.238281 1.195312 -10.414062 1.34375 -10.5625 C 1.5 -10.71875 1.679688 -10.796875 1.890625 -10.796875 L 1.984375 -10.796875 C 2.191406 -10.796875 2.367188 -10.71875 2.515625 -10.5625 C 2.671875 -10.414062 2.75 -10.238281 2.75 -10.03125 Z M 2.75 -9.96875 "/></g></g></g><g fill="#b8b8b8" fill-opacity="1"><g transform="translate(256.860572, 116.826924)"><g><path d="M 1.3125 -10.328125 C 1.3125 -10.535156 1.375 -10.703125 1.5 -10.828125 C 1.625 -10.960938 1.785156 -11.03125 1.984375 -11.03125 C 2.179688 -11.03125 2.34375 -10.960938 2.46875 -10.828125 C 2.601562 -10.703125 2.671875 -10.535156 2.671875 -10.328125 L 2.671875 -0.59375 C 2.671875 -0.40625 2.601562 -0.242188 2.46875 -0.109375 C 2.34375 0.015625 2.179688 0.078125 1.984375 0.078125 C 1.785156 0.078125 1.625 0.015625 1.5 -0.109375 C 1.375 -0.242188 1.3125 -0.40625 1.3125 -0.59375 Z M 1.3125 -10.328125 "/></g></g></g><g fill="#b8b8b8" fill-opacity="1"><g transform="translate(260.832484, 116.826924)"><g><path d="M 1.25 -7.03125 C 1.25 -7.226562 1.3125 -7.390625 1.4375 -7.515625 C 1.570312 -7.648438 1.734375 -7.71875 1.921875 -7.71875 C 2.117188 -7.71875 2.28125 -7.648438 2.40625 -7.515625 C 2.539062 -7.390625 2.609375 -7.226562 2.609375 -7.03125 L 2.609375 -0.59375 C 2.609375 -0.40625 2.539062 -0.242188 2.40625 -0.109375 C 2.28125 0.015625 2.117188 0.078125 1.921875 0.078125 C 1.734375 0.078125 1.570312 0.015625 1.4375 -0.109375 C 1.3125 -0.242188 1.25 -0.40625 1.25 -0.59375 Z M 2.75 -9.96875 C 2.75 -9.757812 2.671875 -9.578125 2.515625 -9.421875 C 2.367188 -9.273438 2.191406 -9.203125 1.984375 -9.203125 L 1.890625 -9.203125 C 1.679688 -9.203125 1.5 -9.273438 1.34375 -9.421875 C 1.195312 -9.578125 1.125 -9.757812 1.125 -9.96875 L 1.125 -10.03125 C 1.125 -10.238281 1.195312 -10.414062 1.34375 -10.5625 C 1.5 -10.71875 1.679688 -10.796875 1.890625 -10.796875 L 1.984375 -10.796875 C 2.191406 -10.796875 2.367188 -10.71875 2.515625 -10.5625 C 2.671875 -10.414062 2.75 -10.238281 2.75 -10.03125 Z M 2.75 -9.96875 "/></g></g></g><g fill="#b8b8b8" fill-opacity="1"><g transform="translate(264.684497, 116.826924)"><g><path d="M 6.921875 -0.984375 C 6.179688 -0.222656 5.320312 0.15625 4.34375 0.15625 C 3.382812 0.15625 2.554688 -0.1875 1.859375 -0.875 C 1.097656 -1.625 0.71875 -2.609375 0.71875 -3.828125 C 0.71875 -5.023438 1.097656 -6.003906 1.859375 -6.765625 C 2.546875 -7.453125 3.375 -7.796875 4.34375 -7.796875 C 5.320312 -7.796875 6.179688 -7.414062 6.921875 -6.65625 L 6.921875 -10.328125 C 6.921875 -10.535156 6.984375 -10.703125 7.109375 -10.828125 C 7.242188 -10.960938 7.40625 -11.03125 7.59375 -11.03125 C 7.789062 -11.03125 7.953125 -10.960938 8.078125 -10.828125 C 8.210938 -10.703125 8.28125 -10.535156 8.28125 -10.328125 L 8.28125 -0.59375 C 8.28125 -0.40625 8.210938 -0.242188 8.078125 -0.109375 C 7.953125 0.015625 7.789062 0.078125 7.59375 0.078125 C 7.40625 0.078125 7.242188 0.015625 7.109375 -0.109375 C 6.984375 -0.242188 6.921875 -0.40625 6.921875 -0.59375 Z M 6.921875 -5.40625 C 6.234375 -6.15625 5.441406 -6.53125 4.546875 -6.53125 C 3.398438 -6.53125 2.644531 -6.019531 2.28125 -5 C 2.144531 -4.65625 2.078125 -4.265625 2.078125 -3.828125 C 2.078125 -2.960938 2.316406 -2.285156 2.796875 -1.796875 C 3.222656 -1.347656 3.804688 -1.125 4.546875 -1.125 C 5.441406 -1.125 6.234375 -1.5 6.921875 -2.25 Z M 6.921875 -5.40625 "/></g></g></g><g fill="#b8b8b8" fill-opacity="1"><g transform="translate(274.142157, 116.826924)"><g><path d="M 1.46875 -7.265625 C 2.3125 -7.617188 3.179688 -7.796875 4.078125 -7.796875 C 5.097656 -7.796875 5.890625 -7.488281 6.453125 -6.875 C 6.953125 -6.332031 7.203125 -5.65625 7.203125 -4.84375 L 7.203125 -0.59375 C 7.203125 -0.40625 7.132812 -0.242188 7 -0.109375 C 6.863281 0.015625 6.703125 0.078125 6.515625 0.078125 C 6.316406 0.078125 6.148438 0.015625 6.015625 -0.109375 C 5.890625 -0.242188 5.828125 -0.40625 5.828125 -0.59375 L 5.828125 -0.984375 C 5.566406 -0.703125 5.207031 -0.441406 4.75 -0.203125 C 4.289062 0.0351562 3.710938 0.15625 3.015625 0.15625 C 2.328125 0.15625 1.753906 -0.046875 1.296875 -0.453125 C 0.804688 -0.867188 0.5625 -1.414062 0.5625 -2.09375 C 0.5625 -2.832031 0.84375 -3.414062 1.40625 -3.84375 C 2.019531 -4.300781 2.890625 -4.53125 4.015625 -4.53125 L 5.828125 -4.53125 L 5.828125 -4.65625 C 5.828125 -5.320312 5.660156 -5.796875 5.328125 -6.078125 C 5.003906 -6.367188 4.503906 -6.515625 3.828125 -6.515625 C 3.242188 -6.515625 2.578125 -6.394531 1.828125 -6.15625 C 1.742188 -6.132812 1.648438 -6.125 1.546875 -6.125 C 1.453125 -6.125 1.347656 -6.175781 1.234375 -6.28125 C 1.128906 -6.382812 1.078125 -6.546875 1.078125 -6.765625 C 1.078125 -6.984375 1.207031 -7.148438 1.46875 -7.265625 Z M 1.9375 -2.25 C 1.9375 -1.445312 2.46875 -1.046875 3.53125 -1.046875 C 4 -1.046875 4.429688 -1.160156 4.828125 -1.390625 C 5.234375 -1.617188 5.566406 -1.878906 5.828125 -2.171875 L 5.828125 -3.4375 L 4.203125 -3.4375 C 3.492188 -3.4375 2.9375 -3.34375 2.53125 -3.15625 C 2.132812 -2.976562 1.9375 -2.675781 1.9375 -2.25 Z M 1.9375 -2.25 "/></g></g></g><g fill="#b8b8b8" fill-opacity="1"><g transform="translate(282.460695, 116.826924)"><g><path d="M 6.921875 -0.984375 C 6.179688 -0.222656 5.320312 0.15625 4.34375 0.15625 C 3.382812 0.15625 2.554688 -0.1875 1.859375 -0.875 C 1.097656 -1.625 0.71875 -2.609375 0.71875 -3.828125 C 0.71875 -5.023438 1.097656 -6.003906 1.859375 -6.765625 C 2.546875 -7.453125 3.375 -7.796875 4.34375 -7.796875 C 5.320312 -7.796875 6.179688 -7.414062 6.921875 -6.65625 L 6.921875 -10.328125 C 6.921875 -10.535156 6.984375 -10.703125 7.109375 -10.828125 C 7.242188 -10.960938 7.40625 -11.03125 7.59375 -11.03125 C 7.789062 -11.03125 7.953125 -10.960938 8.078125 -10.828125 C 8.210938 -10.703125 8.28125 -10.535156 8.28125 -10.328125 L 8.28125 -0.59375 C 8.28125 -0.40625 8.210938 -0.242188 8.078125 -0.109375 C 7.953125 0.015625 7.789062 0.078125 7.59375 0.078125 C 7.40625 0.078125 7.242188 0.015625 7.109375 -0.109375 C 6.984375 -0.242188 6.921875 -0.40625 6.921875 -0.59375 Z M 6.921875 -5.40625 C 6.234375 -6.15625 5.441406 -6.53125 4.546875 -6.53125 C 3.398438 -6.53125 2.644531 -6.019531 2.28125 -5 C 2.144531 -4.65625 2.078125 -4.265625 2.078125 -3.828125 C 2.078125 -2.960938 2.316406 -2.285156 2.796875 -1.796875 C 3.222656 -1.347656 3.804688 -1.125 4.546875 -1.125 C 5.441406 -1.125 6.234375 -1.5 6.921875 -2.25 Z M 6.921875 -5.40625 "/></g></g></g></svg>