<svg xmlns="http://www.w3.org/2000/svg" xmlns:xlink="http://www.w3.org/1999/xlink" width="512" zoomAndPan="magnify" viewBox="0 0 384 383.999986" height="512" preserveAspectRatio="xMidYMid meet" version="1.0"><defs><g/><clipPath id="c719cc9b41"><path d="M 0.8125 1.21875 L 198 1.21875 L 198 217.195312 L 0.8125 217.195312 Z M 0.8125 1.21875 " clip-rule="nonzero"/></clipPath><clipPath id="d0a473f8aa"><rect x="0" width="332" y="0" height="277"/></clipPath></defs><rect x="-38.4" width="460.8" fill="#ffffff" y="-38.399999" height="460.799983" fill-opacity="1"/><rect x="-38.4" width="460.8" fill="#ffffff" y="-38.399999" height="460.799983" fill-opacity="1"/><g transform="matrix(1, 0, 0, 1, 33, 66)"><g clip-path="url(#d0a473f8aa)"><g clip-path="url(#c719cc9b41)"><path fill="#2e7ef6" d="M 99.183594 218.347656 C 44.882812 218.347656 0.808594 174.273438 0.808594 119.972656 C 0.808594 92.925781 11.785156 68.472656 29.472656 50.691406 L 29.558594 50.773438 C 33.132812 45.835938 38.90625 42.597656 45.464844 42.597656 C 56.324219 42.597656 65.148438 51.40625 65.148438 62.269531 C 65.148438 68.925781 61.816406 74.796875 56.75 78.355469 L 56.820312 78.425781 C 46.191406 89.128906 39.535156 103.742188 39.535156 119.972656 C 39.535156 152.710938 66.238281 179.285156 99.128906 179.285156 C 132.023438 179.285156 158.707031 152.710938 158.707031 119.972656 C 158.707031 105.160156 153.136719 91.730469 144.089844 81.355469 C 138.707031 77.84375 135.121094 71.792969 135.121094 64.890625 C 135.121094 54.03125 143.945312 45.207031 154.804688 45.207031 C 160.113281 45.207031 164.910156 47.351562 168.449219 50.773438 L 168.730469 50.496094 C 186.519531 68.289062 197.546875 92.835938 197.546875 119.972656 C 197.546875 174.273438 153.484375 218.351562 99.183594 218.351562 Z M 99.171875 120.652344 C 88.273438 120.652344 79.503906 111.722656 79.503906 100.621094 L 79.503906 21.261719 C 79.503906 10.160156 88.273438 1.230469 99.171875 1.230469 C 110.070312 1.230469 118.855469 10.160156 118.855469 21.261719 L 118.855469 100.621094 C 118.855469 111.722656 110.070312 120.652344 99.171875 120.652344 Z M 99.171875 120.652344 " fill-opacity="1" fill-rule="evenodd"/></g><g fill="#2e7ef6" fill-opacity="1"><g transform="translate(197.608201, 212.186008)"><g><path d="M 72.515625 -94.671875 C 59.773438 -94.671875 47.90625 -87.722656 36.90625 -73.828125 L 36.90625 -8.6875 C 36.90625 -5.9375 35.925781 -3.617188 33.96875 -1.734375 C 32.019531 0.140625 29.671875 1.078125 26.921875 1.078125 C 24.171875 1.078125 21.851562 0.140625 19.96875 -1.734375 C 18.09375 -3.617188 17.15625 -5.9375 17.15625 -8.6875 L 17.15625 -101.828125 C 17.15625 -104.722656 18.09375 -107.109375 19.96875 -108.984375 C 21.851562 -110.867188 24.171875 -111.8125 26.921875 -111.8125 C 29.671875 -111.8125 32.019531 -110.867188 33.96875 -108.984375 C 35.925781 -107.109375 36.90625 -104.722656 36.90625 -101.828125 L 36.90625 -92.921875 C 42.695312 -99.003906 47.691406 -103.273438 51.890625 -105.734375 C 60.140625 -110.515625 67.992188 -112.90625 75.453125 -112.90625 C 82.910156 -112.90625 89.023438 -111.78125 93.796875 -109.53125 C 98.578125 -107.289062 102.628906 -104.21875 105.953125 -100.3125 C 112.753906 -92.351562 116.15625 -82.363281 116.15625 -70.34375 L 116.15625 -8.6875 C 116.15625 -5.9375 115.175781 -3.617188 113.21875 -1.734375 C 111.269531 0.140625 108.921875 1.078125 106.171875 1.078125 C 103.421875 1.078125 101.101562 0.140625 99.21875 -1.734375 C 97.34375 -3.617188 96.40625 -5.9375 96.40625 -8.6875 L 96.40625 -68.171875 C 96.40625 -76.421875 94.554688 -82.898438 90.859375 -87.609375 C 87.171875 -92.316406 81.054688 -94.671875 72.515625 -94.671875 Z M 72.515625 -94.671875 "/></g></g></g></g></g></svg>